# xmcd CD database file
#
# Track frame offsets:
#	150
#	13335
#	24412
#	37591
#	50219
#	65930
#	77589
#	91462
#	101741
#	115815
#	128496
#	150701
#	167083
#	180742
#	209876
#	244896
#	262186
#	289147
#	312816
#
# Disc length: 4352 seconds
#
# Revision: 0
# Processed by: cddbd v1.5PL3 Copyright (c) Steve Scherf et al.
# Submitted via: CDex 1.51
#
DISCID=1410fe13
DTITLE=Muddy Waters - Hoochie Coochie Man
DYEAR=1900
DGENRE=Blues
TTITLE0=Mean Mistreater
TTITLE1=I Can't Call Her Sugar
TTITLE2=Can't Lose What You Never Had
TTITLE3=The Stuff You Gotta Watch
TTITLE4=Iodine In My Coffee
TTITLE5=You Gonna Miss Me
TTITLE6=Close To You
TTITLE7=Mean Red Spider
TTITLE8=You Gonna Need My Help
TTITLE9=Baby Please Don't Go
TTITLE10=Soon Forgotten
TTITLE11=Corrina Corrina
TTITLE12=Hoochie Coochie Man
TTITLE13=Howlin' Wolf
TTITLE14=Floyd's Guitar Blues
TTITLE15=Blow Wind Blow
TTITLE16=Caldonia
TTITLE17=Screamin' and Cryin'
TTITLE18=I Got My Mojo Working
EXTD=
EXTT0=
EXTT1=
EXTT2=
EXTT3=
EXTT4=
EXTT5=
EXTT6=
EXTT7=
EXTT8=
EXTT9=
EXTT10=
EXTT11=
EXTT12=
EXTT13=
EXTT14=
EXTT15=
EXTT16=
EXTT17=
EXTT18=
PLAYORDER=
